<svg width="215" height="52" viewBox="0 0 215 52" fill="none" xmlns="http://www.w3.org/2000/svg">
<path d="M44.3435 44.4793C39.337 49.4931 33.2099 52 25.9624 52C18.7149 52 12.564 49.4931 7.50978 44.4793C2.50326 39.4178 0 33.258 0 26C0 18.742 2.50326 12.6061 7.50978 7.59229C12.564 2.53076 18.7149 0 25.9624 0C33.2099 0 39.337 2.53076 44.3435 7.59229C49.3977 12.6061 51.9248 18.742 51.9248 26C51.9248 33.258 49.3977 39.4178 44.3435 44.4793ZM13.303 38.8926C16.7361 42.2828 20.9559 43.978 25.9624 43.978C30.9689 43.978 35.1649 42.2828 38.5502 38.8926C41.9833 35.4545 43.6998 31.157 43.6998 26C43.6998 20.843 41.9833 16.5693 38.5502 13.1791C35.1649 9.74105 30.9689 8.02204 25.9624 8.02204C20.9559 8.02204 16.7361 9.74105 13.303 13.1791C9.91768 16.5693 8.225 20.843 8.225 26C8.225 31.157 9.91768 35.4545 13.303 38.8926Z" fill="white"/>
<path d="M79.8334 52C72.0613 52 66.6972 48.944 63.741 42.832L70.8216 38.6777C72.4428 42.2112 75.4706 43.978 79.9049 43.978C82.7658 43.978 84.9591 43.2856 86.4849 41.9008C88.0584 40.4683 88.8451 38.4628 88.8451 35.8843V0.93113H97.0701V35.8843C97.0701 41.0413 95.449 45.0285 92.2066 47.8457C88.9643 50.6152 84.8399 52 79.8334 52Z" fill="white"/>
<path d="M128.069 52C120.297 52 114.932 48.944 111.976 42.832L119.057 38.6777C120.678 42.2112 123.706 43.978 128.14 43.978C131.001 43.978 133.194 43.2856 134.72 41.9008C136.294 40.4683 137.08 38.4628 137.08 35.8843V0.93113H145.305V35.8843C145.305 41.0413 143.684 45.0285 140.442 47.8457C137.2 50.6152 133.075 52 128.069 52Z" fill="white"/>
<path d="M207.419 44.4793C202.412 49.4931 196.285 52 189.038 52C181.79 52 175.639 49.4931 170.585 44.4793C165.578 39.4178 163.075 33.258 163.075 26C163.075 18.742 165.578 12.6061 170.585 7.59229C175.639 2.53076 181.79 0 189.038 0C196.285 0 202.412 2.53076 207.419 7.59229C212.473 12.6061 215 18.742 215 26C215 33.258 212.473 39.4178 207.419 44.4793ZM176.378 38.8926C179.811 42.2828 184.031 43.978 189.038 43.978C194.044 43.978 198.24 42.2828 201.625 38.8926C205.058 35.4545 206.775 31.157 206.775 26C206.775 20.843 205.058 16.5693 201.625 13.1791C198.24 9.74105 194.044 8.02204 189.038 8.02204C184.031 8.02204 179.811 9.74105 176.378 13.1791C172.993 16.5693 171.3 20.843 171.3 26C171.3 31.157 172.993 35.4545 176.378 38.8926Z" fill="white"/>
<path d="M36.1308 23.933L36.1248 23.8808C36.1137 23.8155 36.0939 23.7524 36.0658 23.6938L33.1246 18.4231C33.1246 18.4231 32.7495 17.9064 32.6604 17.9064H20.1267L16.3574 23.515L16.3128 23.5666L16.3068 23.5909C16.2749 23.6479 16.2488 23.7085 16.2288 23.7718L16.2135 23.8219C16.17 23.9824 16.1721 24.1538 16.2195 24.3129L16.2371 24.3692C16.2608 24.4359 16.2901 24.4968 16.3244 24.5511L25.4373 37.4018L25.4559 37.4313C25.5027 37.4984 25.5598 37.5579 25.6295 37.6121L25.6824 37.6488C25.7344 37.685 25.7887 37.7139 25.8676 37.746L25.9191 37.7651C26.0083 37.7904 26.0858 37.8023 26.1615 37.8023C26.238 37.8023 26.3128 37.7909 26.4135 37.762L26.4753 37.7377C26.5356 37.7139 26.5899 37.6845 26.6554 37.6395L26.6962 37.6111C26.7663 37.5558 26.8225 37.4959 26.8536 37.4488L35.9781 24.5847C36.0588 24.4649 36.1114 24.3246 36.1313 24.1764L36.1382 24.1098L36.1419 24.0571L36.1308 23.933ZM31.238 23.5909L32.5369 20.9745L33.8348 23.5909H31.238ZM30.4591 25.1413H33.5405L28.4045 32.3839L30.4591 25.1413ZM29.6969 22.8065L27.821 19.9735H31.103L29.6969 22.8065ZM23.6882 25.1413H28.6361L26.1615 33.8629L23.6882 25.1413ZM24.1788 23.5909L26.1615 20.5957L28.1441 23.5909H24.1788ZM22.7825 22.5718L21.9228 19.9735H24.5024L22.7825 22.5718ZM23.9193 32.3844L18.7829 25.1413H21.8647L23.9193 32.3844ZM20.4354 20.9926L21.2956 23.5909H18.7156L20.4354 20.9926Z" fill="white"/>
<path d="M199.799 23.933L199.793 23.8808C199.782 23.8155 199.762 23.7524 199.734 23.6938L196.793 18.4231C196.793 18.4231 196.418 17.9064 196.329 17.9064H183.795L180.026 23.515L179.981 23.5666L179.975 23.5909C179.943 23.6479 179.917 23.7085 179.897 23.7718L179.882 23.8219C179.838 23.9824 179.841 24.1538 179.888 24.3129L179.906 24.3692C179.929 24.4359 179.958 24.4968 179.993 24.5511L189.106 37.4018L189.124 37.4313C189.171 37.4984 189.228 37.5579 189.298 37.6121L189.351 37.6488C189.403 37.685 189.457 37.7139 189.536 37.746L189.588 37.7651C189.677 37.7904 189.754 37.8023 189.83 37.8023C189.906 37.8023 189.981 37.7909 190.082 37.762L190.144 37.7377C190.204 37.7139 190.258 37.6845 190.324 37.6395L190.365 37.6111C190.435 37.5558 190.491 37.4959 190.522 37.4488L199.646 24.5847C199.727 24.4649 199.78 24.3246 199.8 24.1764L199.807 24.1098L199.81 24.0571L199.799 23.933ZM194.906 23.5909L196.205 20.9745L197.503 23.5909H194.906ZM194.127 25.1413H197.209L192.073 32.3839L194.127 25.1413ZM193.365 22.8065L191.489 19.9735H194.771L193.365 22.8065ZM187.357 25.1413H192.305L189.83 33.8629L187.357 25.1413ZM187.847 23.5909L189.83 20.5957L191.812 23.5909H187.847ZM186.451 22.5718L185.591 19.9735H188.171L186.451 22.5718ZM187.588 32.3844L182.451 25.1413H185.533L187.588 32.3844ZM184.104 20.9926L184.964 23.5909H182.384L184.104 20.9926Z" fill="white"/>
</svg>
